<?xml version="1.0" encoding="UTF-8" standalone="no"?><!DOCTYPE svg PUBLIC "-//W3C//DTD SVG 1.1//EN" "http://www.w3.org/Graphics/SVG/1.1/DTD/svg11.dtd"><svg width="100%" height="100%" viewBox="0 0 256 256" version="1.1" xmlns="http://www.w3.org/2000/svg" xmlns:xlink="http://www.w3.org/1999/xlink" xml:space="preserve" xmlns:serif="http://www.serif.com/" style="fill-rule:evenodd;clip-rule:evenodd;stroke-linecap:round;"><path d="M230,40l0,176c0,7.727 -6.273,14 -14,14l-176,0c-7.727,0 -14,-6.273 -14,-14l0,-176c0,-7.727 6.273,-14 14,-14l176,0c7.727,0 14,6.273 14,14Z" style="fill:#111827;"/><path d="M156,75l0,18c0,1.656 -1.344,3 -3,3l-82,0c-1.656,0 -3,-1.344 -3,-3l0,-18c0,-1.656 1.344,-3 3,-3l82,0c1.656,0 3,1.344 3,3Z" style="fill:#60cdff;"/><path d="M136,119l0,18c0,1.656 -1.344,3 -3,3l-62,0c-1.656,0 -3,-1.344 -3,-3l0,-18c0,-1.656 1.344,-3 3,-3l62,0c1.656,0 3,1.344 3,3Z" style="fill:#6ccb5f;"/><path d="M116,163l0,18c0,1.656 -1.344,3 -3,3l-42,0c-1.656,0 -3,-1.344 -3,-3l0,-18c0,-1.656 1.344,-3 3,-3l42,0c1.656,0 3,1.344 3,3Z" style="fill:#fbd324;"/><path d="M188,72l0,112" style="fill:none;fill-rule:nonzero;stroke:#f8fafc;stroke-width:20px;"/></svg>